# xmcd
#
# Track frame offsets:
#	150
#	13520
#	28485
#	41730
#	55867
#	68220
#	79215
#	96210
#	112145
#	128347
#	143360
#	157020
#	167607
#	183810
#	197882
#	210237
#	221820
#	234792
#	245612
#	258274
#
# Disc length: 3570 seconds
#
# Revision: 7
# Processed by: cddbd v1.5.2PL0 Copyright (c) Steve Scherf et al.
# Submitted via: EasyCDDAExtractor 12.0.5.1
#
DISCID=120df014
DTITLE=Lynn Anderson - 20 Golden Hits
DYEAR=1993
DGENRE=Country
TTITLE0=Rose Garden
TTITLE1=We've Only Just Begun
TTITLE2=Top Of The World
TTITLE3=Cry
TTITLE4=Listen To A Country Song
TTITLE5=Ways To Love A Man
TTITLE6=Blue Bayou
TTITLE7=You Needed Me
TTITLE8=Devil Went Down To Georgia
TTITLE9=Could I Have A Dance
TTITLE10=Talking In Your Sleep
TTITLE11=Heartbreak Hotel
TTITLE12=I Was Country
TTITLE13=Two Doors Down
TTITLE14=Stand By Your Man
TTITLE15=That'll Be The Day
TTITLE16=Danny's Song
TTITLE17=Heaven's Just A Sin Away
TTITLE18=I Fall To Pieces
TTITLE19=Snowbird
EXTD=YEAR: 2001
EXTT0=
EXTT1=
EXTT2=
EXTT3=
EXTT4=
EXTT5=
EXTT6=
EXTT7=
EXTT8=
EXTT9=
EXTT10=
EXTT11=
EXTT12=
EXTT13=
EXTT14=
EXTT15=
EXTT16=
EXTT17=
EXTT18=
EXTT19=
PLAYORDER=
